<svg width="457" height="228" viewBox="0 0 457 228" fill="none" xmlns="http://www.w3.org/2000/svg">
<path fill-rule="evenodd" clip-rule="evenodd" d="M147.91 -168.141C201.506 -163.329 258.779 -190.106 305.659 -167.778C353.965 -144.771 368.599 -94.4229 391.698 -52.0288C418.212 -3.36648 477.484 48.5778 449.807 96.782C421.284 146.46 330.662 133.218 271.532 157.261C227.196 175.288 196.238 211.506 147.91 219.534C92.2592 228.779 24.5483 237.435 -17.2395 205.233C-59.1296 172.952 -31.134 113.466 -48.6559 68.0576C-66.1497 22.722 -121.121 -10.6985 -118.937 -58.3171C-116.488 -111.701 -93.5804 -174.973 -36.4291 -198.494C21.2032 -222.214 84.0856 -173.872 147.91 -168.141Z" fill="url(#paint0_linear)"/>
<defs>
<linearGradient id="paint0_linear" x1="169" y1="-205" x2="169.419" y2="326.5" gradientUnits="userSpaceOnUse">
<stop stop-color="#6C63FF"/>
<stop offset="1" stop-color="#8A00BB" stop-opacity="0"/>
</linearGradient>
</defs>
</svg>
