<svg width="433" height="305" viewBox="0 0 433 305" fill="none" xmlns="http://www.w3.org/2000/svg">
<path fill-rule="evenodd" clip-rule="evenodd" d="M207.278 71.5983C257.301 51.7611 296.381 2.06256 348.293 0.889373C401.785 -0.319504 437.522 38.0457 477.236 65.4974C522.823 97.008 599.136 116.698 596.13 172.202C593.031 229.402 506.154 258.385 464.184 306.478C432.715 342.539 421.381 388.817 381.845 417.747C336.319 451.06 279.759 489.279 227.947 479.343C176.008 469.382 174.219 403.662 138.127 371.008C102.093 338.406 37.9608 333.318 18.4689 289.817C-3.38312 241.049 -11.42 174.239 29.0179 127.503C69.7961 80.373 147.71 95.2208 207.278 71.5983Z" fill="url(#paint0_linear)"/>
<defs>
<linearGradient id="paint0_linear" x1="444.591" y1="243.269" x2="-123.574" y2="106.847" gradientUnits="userSpaceOnUse">
<stop stop-color="#6C63FF"/>
<stop offset="1" stop-color="#8A00BB" stop-opacity="0"/>
</linearGradient>
</defs>
</svg>
